GSerif01-DisplayRegular01.ufo
<glyph name="hyphen" format="1">
  <advance width="448"/>
  <unicode hex="002D"/>
  <outline>
    <contour>
      <point x="81" y="322" type="line"/>
      <point x="81" y="268" type="line"/>
      <point x="366" y="268" type="line"/>
      <point x="366" y="322" type="line"/>
    </contour>
  </outline>
</glyph>
<glyph name="F" format="1">
  <advance width="601"/>
  <unicode hex="0046"/>
  <outline>
    <contour>
      <point x="131" y="0" type="line"/>
      <point x="239" y="0" type="line"/>
      <point x="239" y="710" type="line"/>
      <point x="131" y="710" type="line"/>
    </contour>
    <contour>
      <point x="207" y="380" type="line"/>
      <point x="207" y="345" type="line"/>
      <point x="449" y="345" type="line"/>
      <point x="449" y="380" type="line"/>
    </contour>
    <contour>
      <point x="551" y="710" type="line"/>
      <point x="47" y="710" type="line"/>
      <point x="47" y="679" type="line"/>
      <point x="52" y="679" type="line" smooth="yes"/>
      <point x="93" y="678"/>
      <point x="131" y="672"/>
      <point x="131" y="643" type="curve"/>
      <point x="193" y="675" type="line"/>
      <point x="368" y="675" type="line" smooth="yes"/>
      <point x="457" y="675"/>
      <point x="491" y="662"/>
      <point x="499" y="621" type="curve" smooth="yes"/>
      <point x="518" y="522" type="line"/>
      <point x="551" y="522" type="line"/>
    </contour>
    <contour>
      <point x="47" y="0" type="line"/>
      <point x="341" y="0" type="line"/>
      <point x="341" y="31" type="line"/>
      <point x="325" y="31" type="line" smooth="yes"/>
      <point x="286" y="31"/>
      <point x="239" y="34"/>
      <point x="239" y="55" type="curve"/>
      <point x="131" y="67" type="line"/>
      <point x="131" y="38"/>
      <point x="94" y="31"/>
      <point x="52" y="31" type="curve" smooth="yes"/>
      <point x="47" y="31" type="line"/>
    </contour>
  </outline>
</glyph>
<glyph name="J" format="1">
  <advance width="511"/>
  <unicode hex="004A"/>
  <outline>
    <contour>
      <point x="39" y="5" type="line"/>
      <point x="67" y="-3"/>
      <point x="111" y="-10"/>
      <point x="158" y="-10" type="curve" smooth="yes"/>
      <point x="297" y="-10"/>
      <point x="389" y="58"/>
      <point x="389" y="247" type="curve" smooth="yes"/>
      <point x="389" y="710" type="line"/>
      <point x="280" y="710" type="line"/>
      <point x="280" y="234" type="line" smooth="yes"/>
      <point x="280" y="66"/>
      <point x="236" y="24"/>
      <point x="157" y="24" type="curve" smooth="yes"/>
      <point x="117" y="24"/>
      <point x="81" y="31"/>
      <point x="39" y="45" type="curve"/>
    </contour>
    <contour>
      <point x="389" y="643" type="line"/>
      <point x="389" y="672"/>
      <point x="426" y="679"/>
      <point x="468" y="679" type="curve" smooth="yes"/>
      <point x="473" y="679" type="line"/>
      <point x="473" y="710" type="line"/>
      <point x="181" y="710" type="line"/>
      <point x="181" y="679" type="line"/>
      <point x="195" y="679" type="line" smooth="yes"/>
      <point x="242" y="679"/>
      <point x="280" y="672"/>
      <point x="280" y="643" type="curve"/>
    </contour>
  </outline>
</glyph>
<glyph name="R" format="1">
  <advance width="705"/>
  <unicode hex="0052"/>
  <outline>
    <contour>
      <point x="140" y="0" type="line"/>
      <point x="248" y="0" type="line"/>
      <point x="248" y="710" type="line"/>
      <point x="140" y="710" type="line"/>
    </contour>
    <contour>
      <point x="362" y="322" type="line"/>
      <point x="523" y="0" type="line"/>
      <point x="634" y="0" type="line"/>
      <point x="635" y="20" type="line"/>
      <point x="463" y="339" type="line"/>
    </contour>
    <contour>
      <point x="690" y="0" type="line"/>
      <point x="690" y="31" type="line"/>
      <point x="687" y="31" type="line"/>
      <point x="645" y="31"/>
      <point x="627" y="35"/>
      <point x="608" y="70" type="curve"/>
      <point x="600" y="0" type="line"/>
    </contour>
    <contour>
      <point x="196" y="675" type="line"/>
      <point x="343" y="675" type="line" smooth="yes"/>
      <point x="448" y="675"/>
      <point x="500" y="610"/>
      <point x="500" y="510" type="curve" smooth="yes"/>
      <point x="500" y="407"/>
      <point x="454" y="347"/>
      <point x="339" y="347" type="curve" smooth="yes"/>
      <point x="198" y="347" type="line"/>
      <point x="198" y="313" type="line"/>
      <point x="342" y="313" type="line" smooth="yes"/>
      <point x="508" y="313"/>
      <point x="613" y="389"/>
      <point x="613" y="510" type="curve" smooth="yes"/>
      <point x="613" y="630"/>
      <point x="514" y="710"/>
      <point x="349" y="710" type="curve" smooth="yes"/>
      <point x="56" y="710" type="line"/>
      <point x="56" y="679" type="line"/>
      <point x="61" y="679" type="line"/>
      <point x="102" y="679"/>
      <point x="140" y="672"/>
      <point x="140" y="643" type="curve"/>
    </contour>
    <contour>
      <point x="56" y="0" type="line"/>
      <point x="336" y="0" type="line"/>
      <point x="336" y="31" type="line"/>
      <point x="326" y="31" type="line" smooth="yes"/>
      <point x="290" y="31"/>
      <point x="248" y="34"/>
      <point x="248" y="41" type="curve"/>
      <point x="140" y="67" type="line"/>
      <point x="140" y="38"/>
      <point x="103" y="31"/>
      <point x="61" y="31" type="curve" smooth="yes"/>
      <point x="56" y="31" type="line"/>
    </contour>
  </outline>
</glyph>
<glyph name="U" format="1">
  <advance width="764"/>
  <unicode hex="0055"/>
  <outline>
    <contour>
      <point x="227" y="246" type="curve" smooth="yes"/>
      <point x="227" y="710" type="line"/>
      <point x="118" y="710" type="line"/>
      <point x="118" y="245" type="line" smooth="yes"/>
      <point x="118" y="72"/>
      <point x="227" y="-10"/>
      <point x="390" y="-10" type="curve" smooth="yes"/>
      <point x="537" y="-10"/>
      <point x="645" y="70"/>
      <point x="645" y="252" type="curve" smooth="yes"/>
      <point x="645" y="710" type="line"/>
      <point x="605" y="710" type="line"/>
      <point x="605" y="253" type="line" smooth="yes"/>
      <point x="605" y="107"/>
      <point x="534" y="43"/>
      <point x="419" y="43" type="curve" smooth="yes"/>
      <point x="301" y="43"/>
      <point x="227" y="100"/>
    </contour>
    <contour>
      <point x="34" y="710" type="line"/>
      <point x="34" y="679" type="line"/>
      <point x="39" y="679" type="line" smooth="yes"/>
      <point x="81" y="679"/>
      <point x="118" y="672"/>
      <point x="118" y="643" type="curve"/>
      <point x="227" y="669" type="line"/>
      <point x="227" y="676"/>
      <point x="270" y="679"/>
      <point x="303" y="679" type="curve" smooth="yes"/>
      <point x="311" y="679" type="line"/>
      <point x="311" y="710" type="line"/>
    </contour>
    <contour>
      <point x="730" y="710" type="line"/>
      <point x="508" y="710" type="line"/>
      <point x="508" y="679" type="line"/>
      <point x="529" y="679" type="line" smooth="yes"/>
      <point x="579" y="679"/>
      <point x="605" y="672"/>
      <point x="605" y="654" type="curve"/>
      <point x="645" y="619" type="line"/>
      <point x="645" y="663"/>
      <point x="682" y="679"/>
      <point x="720" y="679" type="curve" smooth="yes"/>
      <point x="730" y="679" type="line"/>
    </contour>
  </outline>
</glyph>
<glyph name="e" format="1">
  <advance width="578"/>
  <unicode hex="0065"/>
  <outline>
    <contour>
      <point x="145" y="265" type="curve" smooth="yes"/>
      <point x="145" y="421"/>
      <point x="215" y="513"/>
      <point x="299" y="513" type="curve"/>
      <point x="386" y="513"/>
      <point x="430" y="440"/>
      <point x="432" y="300" type="curve"/>
      <point x="467" y="314" type="line"/>
      <point x="109" y="314" type="line"/>
      <point x="110" y="277" type="line"/>
      <point x="540" y="277" type="line"/>
      <point x="540" y="453"/>
      <point x="453" y="550"/>
      <point x="299" y="550" type="curve"/>
      <point x="156" y="550"/>
      <point x="40" y="437"/>
      <point x="40" y="267" type="curve" smooth="yes"/>
      <point x="40" y="95"/>
      <point x="166" y="-12"/>
      <point x="320" y="-12" type="curve" smooth="yes"/>
      <point x="419" y="-12"/>
      <point x="499" y="32"/>
      <point x="536" y="107" type="curve"/>
      <point x="508" y="127" type="line"/>
      <point x="476" y="68"/>
      <point x="421" y="25"/>
      <point x="332" y="25" type="curve" smooth="yes"/>
      <point x="226" y="25"/>
      <point x="145" y="112"/>
    </contour>
  </outline>
</glyph>
<glyph name="g" format="1">
  <advance width="620"/>
  <unicode hex="0067"/>
  <outline>
    <contour>
      <point x="283" y="-252" type="curve" smooth="yes"/>
      <point x="321" y="-252" type="line" smooth="yes"/>
      <point x="468" y="-252"/>
      <point x="592" y="-182"/>
      <point x="592" y="-62" type="curve" smooth="yes"/>
      <point x="592" y="27"/>
      <point x="530" y="69"/>
      <point x="412" y="69" type="curve" smooth="yes"/>
      <point x="210" y="69" type="line" smooth="yes"/>
      <point x="159" y="69"/>
      <point x="129" y="82"/>
      <point x="129" y="115" type="curve" smooth="yes"/>
      <point x="129" y="149"/>
      <point x="156" y="174"/>
      <point x="199" y="198" type="curve"/>
      <point x="215" y="215"/>
      <point x="190" y="234"/>
      <point x="175" y="215" type="curve"/>
      <point x="104" y="178"/>
      <point x="68" y="137"/>
      <point x="68" y="85" type="curve" smooth="yes"/>
      <point x="68" y="48"/>
      <point x="86" y="12"/>
      <point x="131" y="-9" type="curve"/>
      <point x="128" y="-15"/>
      <point x="121" y="-14"/>
      <point x="123" y="-23" type="curve"/>
      <point x="406" y="-23" type="line" smooth="yes"/>
      <point x="491" y="-23"/>
      <point x="516" y="-46"/>
      <point x="516" y="-92" type="curve" smooth="yes"/>
      <point x="516" y="-166"/>
      <point x="437" y="-218"/>
      <point x="320" y="-218" type="curve" smooth="yes"/>
      <point x="284" y="-218" type="line" smooth="yes"/>
      <point x="157" y="-218"/>
      <point x="98" y="-172"/>
      <point x="98" y="-112" type="curve" smooth="yes"/>
      <point x="98" y="-69"/>
      <point x="110" y="-31"/>
      <point x="159" y="-6" type="curve"/>
      <point x="146" y="13" type="line"/>
      <point x="68" y="-22"/>
      <point x="30" y="-60"/>
      <point x="30" y="-113" type="curve"/>
      <point x="30" y="-206"/>
      <point x="142" y="-252"/>
    </contour>
    <contour>
      <point x="186" y="359" type="curve" smooth="yes"/>
      <point x="186" y="458"/>
      <point x="233" y="518"/>
      <point x="300" y="518" type="curve" smooth="yes"/>
      <point x="368" y="518"/>
      <point x="414" y="458"/>
      <point x="414" y="359" type="curve" smooth="yes"/>
      <point x="414" y="260"/>
      <point x="367" y="204"/>
      <point x="300" y="204" type="curve" smooth="yes"/>
      <point x="233" y="204"/>
      <point x="186" y="260"/>
    </contour>
    <contour>
      <point x="300" y="172" type="curve" smooth="yes"/>
      <point x="423" y="172"/>
      <point x="515" y="245"/>
      <point x="515" y="359" type="curve" smooth="yes"/>
      <point x="515" y="473"/>
      <point x="425" y="550"/>
      <point x="300" y="550" type="curve" smooth="yes"/>
      <point x="176" y="551"/>
      <point x="86" y="473"/>
      <point x="86" y="359" type="curve" smooth="yes"/>
      <point x="86" y="245"/>
      <point x="176" y="172"/>
    </contour>
    <contour>
      <point x="598" y="475" type="curve"/>
      <point x="598" y="555" type="line"/>
      <point x="532" y="560"/>
      <point x="481" y="527"/>
      <point x="442" y="458" type="curve"/>
      <point x="442" y="455"/>
      <point x="455" y="440"/>
      <point x="457" y="443" type="curve"/>
      <point x="482" y="482"/>
      <point x="520" y="483"/>
    </contour>
  </outline>
</glyph>
<glyph name="l" format="1">
  <advance width="331"/>
  <unicode hex="006C"/>
  <outline>
    <contour>
      <point x="40" y="750" type="line"/>
      <point x="40" y="720" type="line"/>
      <point x="51" y="718" type="line" smooth="yes"/>
      <point x="98" y="709"/>
      <point x="122" y="702"/>
      <point x="122" y="673" type="curve" smooth="yes"/>
      <point x="122" y="0" type="line"/>
      <point x="224" y="0" type="line"/>
      <point x="224" y="750" type="line"/>
    </contour>
    <contour>
      <point x="305" y="0" type="line"/>
      <point x="305" y="31" type="line"/>
      <point x="304" y="31" type="line"/>
      <point x="259" y="31"/>
      <point x="224" y="38"/>
      <point x="224" y="67" type="curve"/>
      <point x="122" y="67" type="line"/>
      <point x="122" y="38"/>
      <point x="87" y="31"/>
      <point x="42" y="31" type="curve"/>
      <point x="41" y="31" type="line"/>
      <point x="41" y="0" type="line"/>
    </contour>
  </outline>
</glyph>
<glyph name="t" format="1">
  <advance width="394"/>
  <unicode hex="0074"/>
  <outline>
    <contour>
      <point x="24" y="506" type="line"/>
      <point x="24" y="535" type="line"/>
      <point x="26" y="535" type="line" smooth="yes"/>
      <point x="75" y="536"/>
      <point x="129" y="549"/>
      <point x="129" y="626" type="curve"/>
      <point x="159" y="540" type="line"/>
      <point x="347" y="540" type="line"/>
      <point x="347" y="506" type="line"/>
    </contour>
    <contour>
      <point x="205" y="139" type="line" smooth="yes"/>
      <point x="205" y="54"/>
      <point x="238" y="26"/>
      <point x="289" y="26" type="curve" smooth="yes"/>
      <point x="316" y="26"/>
      <point x="336" y="30"/>
      <point x="361" y="40" type="curve"/>
      <point x="361" y="6" type="line"/>
      <point x="339" y="-4"/>
      <point x="307" y="-11"/>
      <point x="275" y="-11" type="curve" smooth="yes"/>
      <point x="190" y="-11"/>
      <point x="103" y="19"/>
      <point x="103" y="145" type="curve" smooth="yes"/>
      <point x="103" y="539" type="line"/>
      <point x="129" y="543" type="line"/>
      <point x="129" y="670" type="line"/>
      <point x="205" y="670" type="line"/>
    </contour>
  </outline>
</glyph>
<glyph name="x" format="1">
  <advance width="581"/>
  <unicode hex="0078"/>
  <outline>
    <contour>
      <point x="19" y="0" type="line"/>
      <point x="206" y="0" type="line"/>
      <point x="206" y="31" type="line"/>
      <point x="204" y="31" type="line"/>
      <point x="173" y="31"/>
      <point x="137" y="40"/>
      <point x="137" y="59" type="curve"/>
      <point x="102" y="79" type="line"/>
      <point x="78" y="46"/>
      <point x="55" y="31"/>
      <point x="22" y="31" type="curve"/>
      <point x="19" y="31" type="line"/>
    </contour>
    <contour>
      <point x="100" y="469" type="curve"/>
      <point x="195" y="496" type="line"/>
      <point x="195" y="507"/>
      <point x="225" y="510"/>
      <point x="254" y="510" type="curve"/>
      <point x="256" y="510" type="line"/>
      <point x="256" y="540" type="line"/>
      <point x="29" y="540" type="line"/>
      <point x="29" y="510" type="line"/>
      <point x="30" y="510" type="line"/>
      <point x="59" y="510"/>
      <point x="77" y="502"/>
    </contour>
    <contour>
      <point x="421" y="0" type="line"/>
      <point x="534" y="4" type="line"/>
      <point x="330" y="297" type="line"/>
      <point x="326" y="301" type="line"/>
      <point x="175" y="528" type="line"/>
      <point x="61" y="524" type="line"/>
      <point x="249" y="254" type="line"/>
      <point x="254" y="249" type="line"/>
    </contour>
    <contour>
      <point x="563" y="0" type="line"/>
      <point x="563" y="31" type="line"/>
      <point x="562" y="31" type="line"/>
      <point x="530" y="31"/>
      <point x="507" y="45"/>
      <point x="487" y="72" type="curve"/>
      <point x="391" y="45" type="line"/>
      <point x="391" y="34"/>
      <point x="349" y="31"/>
      <point x="318" y="31" type="curve"/>
      <point x="316" y="31" type="line"/>
      <point x="316" y="0" type="line"/>
    </contour>
    <contour>
      <point x="533" y="540" type="line"/>
      <point x="364" y="540" type="line"/>
      <point x="364" y="510" type="line"/>
      <point x="365" y="510" type="line"/>
      <point x="394" y="510"/>
      <point x="421" y="503"/>
      <point x="421" y="486" type="curve"/>
      <point x="451" y="463" type="line"/>
      <point x="474" y="497"/>
      <point x="496" y="510"/>
      <point x="532" y="510" type="curve"/>
      <point x="533" y="510" type="line"/>
    </contour>
    <contour>
      <point x="246" y="287" type="line"/>
      <point x="48" y="4" type="line"/>
      <point x="97" y="0" type="line"/>
      <point x="268" y="254" type="line"/>
    </contour>
    <contour>
      <point x="316" y="262" type="line"/>
      <point x="494" y="525" type="line"/>
      <point x="449" y="528" type="line"/>
      <point x="295" y="297" type="line"/>
    </contour>
  </outline>
</glyph>
<glyph name="quoteright" format="1">
  <advance width="260"/>
  <unicode hex="2019"/>
  <outline>
    <contour>
      <point x="135" y="485" type="curve"/>
      <point x="160" y="518"/>
      <point x="190" y="581"/>
      <point x="190" y="644" type="curve" smooth="yes"/>
      <point x="190" y="692"/>
      <point x="164" y="715"/>
      <point x="127" y="715" type="curve" smooth="yes"/>
      <point x="94" y="715"/>
      <point x="70" y="692"/>
      <point x="70" y="658" type="curve" smooth="yes"/>
      <point x="70" y="616"/>
      <point x="105" y="593"/>
      <point x="157" y="602" type="curve"/>
      <point x="145" y="612"/>
      <point x="157" y="619"/>
      <point x="149" y="615" type="curve"/>
      <point x="148" y="580"/>
      <point x="109" y="527"/>
      <point x="76" y="485" type="curve"/>
      <point x="78" y="485"/>
      <point x="133" y="485"/>
    </contour>
  </outline>
</glyph>
<glyph name="E.alt" format="1">
  <advance width="646"/>
  <outline>
    <contour>
      <point x="131" y="0" type="line"/>
      <point x="239" y="0" type="line"/>
      <point x="239" y="710" type="line"/>
      <point x="131" y="710" type="line"/>
    </contour>
    <contour>
      <point x="203" y="381" type="line"/>
      <point x="203" y="346" type="line"/>
      <point x="432" y="346" type="line"/>
      <point x="432" y="381" type="line"/>
    </contour>
    <contour>
      <point x="47" y="710" type="line"/>
      <point x="47" y="679" type="line"/>
      <point x="52" y="679" type="line" smooth="yes"/>
      <point x="93" y="678"/>
      <point x="131" y="672"/>
      <point x="131" y="643" type="curve"/>
      <point x="193" y="675" type="line"/>
      <point x="377" y="675" type="line" smooth="yes"/>
      <point x="466" y="675"/>
      <point x="499" y="662"/>
      <point x="508" y="621" type="curve" smooth="yes"/>
      <point x="529" y="524" type="line"/>
      <point x="562" y="524" type="line"/>
      <point x="562" y="710" type="line"/>
    </contour>
    <contour>
      <point x="47" y="0" type="line"/>
      <point x="594" y="0" type="line"/>
      <point x="594" y="210" type="line"/>
      <point x="560" y="210" type="line"/>
      <point x="539" y="92" type="line" smooth="yes"/>
      <point x="531" y="48"/>
      <point x="496" y="35"/>
      <point x="407" y="35" type="curve" smooth="yes"/>
      <point x="209" y="35" type="line"/>
      <point x="131" y="67" type="line"/>
      <point x="131" y="38"/>
      <point x="94" y="31"/>
      <point x="52" y="31" type="curve" smooth="yes"/>
      <point x="47" y="31" type="line"/>
    </contour>
    <contour>
      <point x="457" y="274" type="line"/>
      <point x="457" y="454" type="line"/>
      <point x="426" y="454" type="line"/>
      <point x="426" y="449" type="line"/>
      <point x="426" y="411"/>
      <point x="417" y="381"/>
      <point x="388" y="381" type="curve"/>
      <point x="388" y="346" type="line"/>
      <point x="417" y="346"/>
      <point x="426" y="316"/>
      <point x="426" y="280" type="curve"/>
      <point x="426" y="274" type="line"/>
    </contour>
  </outline>
</glyph>
<glyph name="G.alt" format="1">
  <advance width="792"/>
  <outline>
    <contour>
      <point x="161" y="355" type="curve" smooth="yes"/>
      <point x="161" y="547"/>
      <point x="270" y="672"/>
      <point x="424" y="672" type="curve" smooth="yes"/>
      <point x="526" y="672"/>
      <point x="596" y="629"/>
      <point x="622" y="570" type="curve"/>
      <point x="630" y="606"/>
      <point x="608" y="633"/>
      <point x="580" y="632" type="curve"/>
      <point x="580" y="510" type="line"/>
      <point x="690" y="510" type="line"/>
      <point x="690" y="612" type="line"/>
      <point x="654" y="663"/>
      <point x="560" y="720"/>
      <point x="423" y="720" type="curve" smooth="yes"/>
      <point x="207" y="720"/>
      <point x="44" y="569"/>
      <point x="44" y="355" type="curve" smooth="yes"/>
      <point x="44" y="137"/>
      <point x="190" y="-10"/>
      <point x="416" y="-10" type="curve" smooth="yes"/>
      <point x="543" y="-10"/>
      <point x="661" y="57"/>
      <point x="701" y="118" type="curve"/>
      <point x="701" y="297" type="line"/>
      <point x="597" y="305" type="line"/>
      <point x="597" y="111" type="line"/>
      <point x="575" y="87"/>
      <point x="513" y="38"/>
      <point x="418" y="38" type="curve" smooth="yes"/>
      <point x="254" y="38"/>
      <point x="161" y="161"/>
    </contour>
    <contour>
      <point x="701" y="267" type="line"/>
      <point x="701" y="296"/>
      <point x="737" y="302"/>
      <point x="765" y="303" type="curve" smooth="yes"/>
      <point x="770" y="303" type="line"/>
      <point x="770" y="337" type="line"/>
      <point x="504" y="337" type="line"/>
      <point x="504" y="303" type="line"/>
      <point x="509" y="303" type="line" smooth="yes"/>
      <point x="559" y="302"/>
      <point x="597" y="296"/>
      <point x="597" y="267" type="curve"/>
    </contour>
  </outline>
</glyph>
<glyph name="J.alt" format="1">
  <advance width="639"/>
  <outline>
    <contour>
      <point x="496" y="643" type="line"/>
      <point x="496" y="672"/>
      <point x="534" y="679"/>
      <point x="575" y="679" type="curve" smooth="yes"/>
      <point x="581" y="679" type="line"/>
      <point x="581" y="710" type="line"/>
      <point x="289" y="710" type="line"/>
      <point x="289" y="679" type="line"/>
      <point x="303" y="679" type="line" smooth="yes"/>
      <point x="350" y="679"/>
      <point x="388" y="672"/>
      <point x="388" y="643" type="curve"/>
    </contour>
    <contour>
      <point x="254" y="24" type="curve"/>
      <point x="190" y="24"/>
      <point x="147" y="46"/>
      <point x="132" y="83" type="curve"/>
      <point x="102" y="119"/>
      <point x="106" y="52"/>
      <point x="152" y="39" type="curve"/>
      <point x="152" y="166" type="line"/>
      <point x="47" y="166" type="line"/>
      <point x="47" y="67" type="line"/>
      <point x="85" y="26"/>
      <point x="158" y="-10"/>
      <point x="256" y="-10" type="curve"/>
      <point x="400" y="-10"/>
      <point x="496" y="58"/>
      <point x="496" y="243" type="curve" smooth="yes"/>
      <point x="496" y="710" type="line"/>
      <point x="388" y="710" type="line"/>
      <point x="388" y="230" type="line" smooth="yes"/>
      <point x="388" y="66"/>
      <point x="339" y="24"/>
    </contour>
  </outline>
</glyph>
<glyph name="Q.alt" format="1">
  <advance width="796"/>
  <outline>
    <contour>
      <point x="418" y="209" type="line"/>
      <point x="497" y="89"/>
      <point x="563" y="-33"/>
      <point x="811" y="-48" type="curve"/>
      <point x="811" y="41" type="line"/>
      <point x="581" y="45"/>
      <point x="526" y="106"/>
      <point x="446" y="227" type="curve"/>
    </contour>
    <contour>
      <point x="398" y="-10" type="curve" smooth="yes"/>
      <point x="596" y="-10"/>
      <point x="752" y="139"/>
      <point x="752" y="355" type="curve" smooth="yes"/>
      <point x="752" y="572"/>
      <point x="596" y="720"/>
      <point x="398" y="720" type="curve" smooth="yes"/>
      <point x="199" y="720"/>
      <point x="44" y="572"/>
      <point x="44" y="355" type="curve" smooth="yes"/>
      <point x="44" y="139"/>
      <point x="199" y="-10"/>
    </contour>
    <contour>
      <point x="398" y="25" type="curve" smooth="yes"/>
      <point x="260" y="25"/>
      <point x="161" y="152"/>
      <point x="161" y="355" type="curve" smooth="yes"/>
      <point x="161" y="558"/>
      <point x="260" y="685"/>
      <point x="398" y="685" type="curve" smooth="yes"/>
      <point x="537" y="685"/>
      <point x="635" y="558"/>
      <point x="635" y="355" type="curve" smooth="yes"/>
      <point x="635" y="134"/>
      <point x="537" y="25"/>
    </contour>
  </outline>
</glyph>
<glyph name="S.srf" format="1">
  <advance width="630"/>
  <outline>
    <contour>
      <point x="318" y="24" type="curve" smooth="yes"/>
      <point x="204" y="24"/>
      <point x="113" y="91"/>
      <point x="85" y="220" type="curve"/>
      <point x="51" y="220" type="line"/>
      <point x="51" y="0" type="line"/>
      <point x="93" y="0" type="line"/>
      <point x="103" y="127" type="line"/>
      <point x="101" y="132"/>
      <point x="74" y="157"/>
      <point x="71" y="158" type="curve"/>
      <point x="100" y="46"/>
      <point x="211" y="-11"/>
      <point x="326" y="-11" type="curve" smooth="yes"/>
      <point x="465" y="-11"/>
      <point x="580" y="68"/>
      <point x="580" y="200" type="curve" smooth="yes"/>
      <point x="580" y="342"/>
      <point x="462" y="381"/>
      <point x="349" y="412" type="curve" smooth="yes"/>
      <point x="245" y="441"/>
      <point x="152" y="457"/>
      <point x="152" y="555" type="curve" smooth="yes"/>
      <point x="152" y="632"/>
      <point x="201" y="686"/>
      <point x="299" y="686" type="curve" smooth="yes"/>
      <point x="400" y="686"/>
      <point x="479" y="622"/>
      <point x="499" y="524" type="curve"/>
      <point x="532" y="524" type="line"/>
      <point x="532" y="710" type="line"/>
      <point x="493" y="710" type="line"/>
      <point x="482" y="602" type="line"/>
      <point x="484" y="599"/>
      <point x="519" y="573"/>
      <point x="522" y="572" type="curve"/>
      <point x="479" y="675"/>
      <point x="387" y="720"/>
      <point x="289" y="720" type="curve" smooth="yes"/>
      <point x="155" y="720"/>
      <point x="60" y="642"/>
      <point x="60" y="530" type="curve"/>
      <point x="60" y="391"/>
      <point x="173" y="356"/>
      <point x="283" y="325" type="curve" smooth="yes"/>
      <point x="386" y="296"/>
      <point x="482" y="274"/>
      <point x="482" y="172" type="curve" smooth="yes"/>
      <point x="482" y="66"/>
      <point x="415" y="24"/>
    </contour>
  </outline>
</glyph>
<glyph name="f.alt" format="1">
  <advance width="402"/>
  <outline>
    <contour>
      <point x="49" y="30" type="line"/>
      <point x="49" y="0" type="line"/>
      <point x="339" y="0" type="line"/>
      <point x="339" y="30" type="line"/>
      <point x="328" y="30" type="line" smooth="yes"/>
      <point x="272" y="30"/>
      <point x="229" y="33"/>
      <point x="229" y="52" type="curve"/>
      <point x="140" y="66" type="line"/>
      <point x="140" y="37"/>
      <point x="105" y="30"/>
      <point x="60" y="30" type="curve"/>
    </contour>
    <contour>
      <point x="49" y="540" type="line"/>
      <point x="49" y="506" type="line"/>
      <point x="365" y="506" type="line"/>
      <point x="365" y="540" type="line"/>
    </contour>
    <contour>
      <point x="229" y="595" type="line" smooth="yes"/>
      <point x="229" y="686"/>
      <point x="269" y="720"/>
      <point x="327" y="720" type="curve" smooth="yes"/>
      <point x="355" y="720"/>
      <point x="377" y="718"/>
      <point x="394" y="714" type="curve"/>
      <point x="394" y="754" type="line"/>
      <point x="376" y="758"/>
      <point x="351" y="760"/>
      <point x="327" y="760" type="curve" smooth="yes"/>
      <point x="240" y="760"/>
      <point x="140" y="725"/>
      <point x="140" y="595" type="curve"/>
      <point x="140" y="0" type="line"/>
      <point x="229" y="0" type="line"/>
    </contour>
  </outline>
</glyph>
<glyph name="five.alt2" format="1">
  <advance width="620"/>
  <outline>
    <contour>
      <point x="94" y="710" type="line"/>
      <point x="523" y="710" type="line"/>
      <point x="523" y="536" type="line"/>
      <point x="477" y="536" type="line"/>
      <point x="477" y="630" type="line"/>
      <point x="477" y="630" type="line"/>
      <point x="129" y="630" type="line"/>
      <point x="147" y="659" type="line"/>
      <point x="147" y="408" type="line"/>
      <point x="94" y="408" type="line"/>
    </contour>
    <contour>
      <point x="264" y="424" type="line" smooth="yes"/>
      <point x="478" y="424"/>
      <point x="573" y="342"/>
      <point x="573" y="212" type="curve" smooth="yes"/>
      <point x="573" y="62"/>
      <point x="453" y="-10"/>
      <point x="313" y="-10" type="curve" smooth="yes"/>
      <point x="165" y="-10"/>
      <point x="57" y="62"/>
      <point x="40" y="208" type="curve"/>
      <point x="150" y="208" type="line"/>
      <point x="168" y="89"/>
      <point x="225" y="40"/>
      <point x="313" y="40" type="curve" smooth="yes"/>
      <point x="397" y="40"/>
      <point x="464" y="88"/>
      <point x="464" y="211" type="curve" smooth="yes"/>
      <point x="464" y="333"/>
      <point x="392" y="377"/>
      <point x="242" y="377" type="curve" smooth="yes"/>
      <point x="94" y="377" type="line"/>
      <point x="94" y="424" type="line"/>
    </contour>
  </outline>
</glyph>
<glyph name="seven.old" format="1">
  <advance width="531"/>
  <outline>
    <contour>
      <point x="102" y="-188" type="line"/>
      <point x="297" y="69"/>
      <point x="433" y="256"/>
      <point x="433" y="484" type="curve"/>
      <point x="447" y="447" type="line"/>
      <point x="84" y="447" type="line"/>
      <point x="92" y="483" type="line"/>
      <point x="92" y="317" type="line"/>
      <point x="43" y="317" type="line"/>
      <point x="43" y="528" type="line"/>
      <point x="489" y="528" type="line"/>
      <point x="489" y="495" type="line" smooth="yes"/>
      <point x="489" y="236"/>
      <point x="395" y="56"/>
      <point x="233" y="-188" type="curve"/>
    </contour>
  </outline>
</glyph>
<glyph name="three.old" format="1">
  <advance width="616"/>
  <outline>
    <contour>
      <point x="338" y="195" type="line"/>
      <point x="477" y="195"/>
      <point x="568" y="133"/>
      <point x="568" y="17" type="curve" smooth="yes"/>
      <point x="568" y="-123"/>
      <point x="452" y="-193"/>
      <point x="314" y="-193" type="curve" smooth="yes"/>
      <point x="169" y="-193"/>
      <point x="62" y="-121"/>
      <point x="45" y="26" type="curve"/>
      <point x="156" y="26" type="line"/>
      <point x="167" y="-95"/>
      <point x="223" y="-145"/>
      <point x="312" y="-145" type="curve" smooth="yes"/>
      <point x="394" y="-145"/>
      <point x="459" y="-98"/>
      <point x="459" y="18" type="curve" smooth="yes"/>
      <point x="459" y="134"/>
      <point x="398" y="167"/>
      <point x="301" y="167" type="curve" smooth="yes"/>
      <point x="222" y="167" type="line"/>
      <point x="222" y="206" type="line"/>
      <point x="290" y="206" type="line" smooth="yes"/>
      <point x="380" y="206"/>
      <point x="429" y="262"/>
      <point x="429" y="355" type="curve" smooth="yes"/>
      <point x="429" y="444"/>
      <point x="391" y="490"/>
      <point x="319" y="490" type="curve" smooth="yes"/>
      <point x="237" y="490"/>
      <point x="196" y="430"/>
      <point x="186" y="327" type="curve"/>
      <point x="77" y="327" type="line"/>
      <point x="93" y="456"/>
      <point x="186" y="537"/>
      <point x="320" y="537" type="curve" smooth="yes"/>
      <point x="452" y="537"/>
      <point x="532" y="467"/>
      <point x="532" y="358" type="curve" smooth="yes"/>
      <point x="532" y="254"/>
      <point x="448" y="189"/>
      <point x="316" y="189" type="curve"/>
    </contour>
  </outline>
</glyph>
